# xmcd
#
# Track frame offsets:
#	150
#	12201
#	26182
#	37111
#	54964
#	71052
#	89665
#	106454
#	117556
#	134288
#	147298
#	158677
#	176894
#	198486
#	219092
#	238517
#	251515
#	264395
#	284623
#	307423
#
# Disc length: 4251 seconds
#
# Revision: 5
# Processed by: cddbd v1.5.2PL0 Copyright (c) Steve Scherf et al.
# Submitted via: audiograbber 1.83.01
#
DISCID=33109914
DTITLE=Various Artist - New Country Collection Vol.04 [CD3)
DYEAR=2010
DGENRE=Country
TTITLE0=Rodney Atkins - 15 Minutes
TTITLE1=Alan Jackson - Pop A Top
TTITLE2=Burns and Poe - Cowboy Stomp (Featuring Cowboy Troy)
TTITLE3=Pat Green - Feeling Pretty Good Tonight
TTITLE4=Sara Evans - I Don't Wanna See The Light
TTITLE5=Tim McGraw - Don't Take The Girl
TTITLE6=Keith Anderson - XXL
TTITLE7=Mark Chesnutt - (What You Got) Going On Later On
TTITLE8=Kellie Pickler - Red High Heels
TTITLE9=Danni Leigh - Damned If I Do
TTITLE10=John Michael Montgomery - Sold (The Grundy County Auction Incident)
TTITLE11=Clint Black - Desperado (Live)
TTITLE12=Dwight Yoakam - Fast As You
TTITLE13=Billy Ray Cyrus - Stand Still
TTITLE14=Dixie Chicks - Goodbye Earl
TTITLE15=Sawyer Brown - The Race Is On
TTITLE16=Blaine Larsen - That's All I've Got To Say About That
TTITLE17=Michael Peterson - Modern Man
TTITLE18=Clay Walker - The Chain Of Love
TTITLE19=Daryle Singletary - They Know How To Grow Em
EXTD=
EXTT0=
EXTT1=
EXTT2=
EXTT3=
EXTT4=
EXTT5=
EXTT6=
EXTT7=
EXTT8=
EXTT9=
EXTT10=
EXTT11=
EXTT12=
EXTT13=
EXTT14=
EXTT15=
EXTT16=
EXTT17=
EXTT18=
EXTT19=
PLAYORDER=
